<svg xmlns="http://www.w3.org/2000/svg" viewBox="0 0 301.71 77.23"><defs><style>.cls-1{fill:#ffffff;}</style></defs><title>mood</title><g id="Layer_2" data-name="Layer 2"><g id="Layer_1-2" data-name="Layer 1"><path class="cls-1" d="M215.71,68.3c-8.69,4.28-20.35,2.09-28.56-6.11s-10.39-19.86-6.1-28.55a.13.13,0,0,0-.22-.15c-18.78,19.53-1.32,36.34-1.32,36.34s16.82,17.47,36.34-1.31a.13.13,0,0,0-.14-.22"/><path class="cls-1" d="M220,29.36s-16.82-17.47-36.35,1.31a.14.14,0,0,0,.15.23c8.69-4.29,20.35-2.1,28.55,6.1s10.4,19.87,6.11,28.56a.13.13,0,0,0,.22.14C237.45,46.18,220,29.36,220,29.36"/><path class="cls-1" d="M152.17,68.3c-8.69,4.28-20.35,2.09-28.55-6.11s-10.4-19.86-6.11-28.55a.13.13,0,0,0-.22-.15C98.51,53,116,69.83,116,69.83s16.82,17.47,36.34-1.31a.13.13,0,0,0-.14-.22"/><path class="cls-1" d="M156.45,29.36s-16.82-17.47-36.35,1.31a.14.14,0,0,0,.15.23c8.69-4.29,20.35-2.1,28.55,6.1s10.4,19.87,6.11,28.56a.13.13,0,0,0,.22.14c18.78-19.52,1.32-36.34,1.32-36.34"/><path class="cls-1" d="M278.06,68.3c-8.69,4.28-20.35,2.09-28.56-6.11s-10.39-19.86-6.11-28.55a.13.13,0,0,0-.22-.15c-18.78,19.53-1.31,36.34-1.31,36.34s16.82,17.47,36.34-1.31a.13.13,0,0,0-.14-.22"/><path class="cls-1" d="M246,30.68c-.11.12,0,.29.14.22,8.69-4.29,20.36-2.1,28.57,6.1a29.12,29.12,0,0,1,4.15,5.31l-2.21-12.89c-1-5.07-15.74-14.58-30.65,1.26"/><path class="cls-1" d="M48,48.22,39.38,16.27h0l0-.05C32.48-2.63,15.45.37,15.45.37,25.31.37,30.91,29,30.91,29a.14.14,0,0,0,0,.11L39.5,61.06h0c6.92,18.84,24,15.83,24,15.83C53.59,76.88,48,48.22,48,48.22"/><path class="cls-1" d="M88.86,48.37l.08-.13v0l-8.6-31.95h0l0-.05C73.43-2.63,56.4.37,56.4.37,66.27.37,71.87,29,71.87,29a.11.11,0,0,0,0,.11l8.57,31.78-.08.11c6.92,18.85,24,15.84,24,15.84-9.46,0-15-26.3-15.44-28.51"/><path class="cls-1" d="M293.24,61.24a0,0,0,0,0,0,0V0a0,0,0,0,0,0,0,10.49,10.49,0,0,0-10.49,10.49V61.2s0,0,0,0,0,16,18.93,16c-.55,0-8.47-.55-8.47-16"/><path class="cls-1" d="M7.72,61.44a7.72,7.72,0,1,0,7.73,7.72,7.72,7.72,0,0,0-7.73-7.72"/></g></g></svg>