<svg xmlns="http://www.w3.org/2000/svg" viewBox="0 0 144 45">
  <defs>
    <style>
      .cls-1 {
        fill: #333333;
      }

      .cls-2 {
        fill: #ffffff;
      }
    </style>
  </defs>
  <g id="app-store-badge" transform="translate(-44.2 -19)">
    <path id="Path_104" data-name="Path 104" class="cls-1" d="M183.7,64H48.7a4.513,4.513,0,0,1-4.5-4.5v-36A4.513,4.513,0,0,1,48.7,19h135a4.513,4.513,0,0,1,4.5,4.5v36A4.513,4.513,0,0,1,183.7,64Z" transform="translate(0 0)"/>
    <path id="Path_105" data-name="Path 105" class="cls-2" d="M73.294,39.7a6.523,6.523,0,0,1,3.037-5.287A7.01,7.01,0,0,0,71.269,31.6c-2.138-.225-4.275,1.237-5.287,1.237-1.125,0-2.812-1.237-4.612-1.237a6.684,6.684,0,0,0-5.738,3.488c-2.475,4.275-.675,10.575,1.688,14.063,1.238,1.688,2.588,3.6,4.388,3.488s2.475-1.125,4.612-1.125,2.7,1.125,4.613,1.125,3.15-1.688,4.275-3.375a12.9,12.9,0,0,0,1.912-3.937A6.221,6.221,0,0,1,73.294,39.7Z" transform="translate(1.281 1.572)"/>
    <path id="Path_106" data-name="Path 106" class="cls-2" d="M68.554,30.1a6.977,6.977,0,0,0,1.463-4.5,6.025,6.025,0,0,0-4.05,2.138A5.689,5.689,0,0,0,64.5,32.013,5.344,5.344,0,0,0,68.554,30.1Z" transform="translate(2.533 0.825)"/>
    <path id="Path_107" data-name="Path 107" class="cls-2" d="M95.35,51.713H92.875l-1.35-4.275H86.8l-1.237,4.275H83.2L87.925,37.2H90.85Zm-4.275-6.075-1.238-3.825c-.112-.338-.337-1.35-.787-2.7h0c-.112.563-.338,1.575-.675,2.7l-1.238,3.825Z" transform="translate(4.875 2.275)"/>
    <path id="Path_108" data-name="Path 108" class="cls-2" d="M105.825,45.988a5.99,5.99,0,0,1-1.463,4.275,4.328,4.328,0,0,1-3.262,1.35,3.062,3.062,0,0,1-2.925-1.462h0v5.513H95.813V44.413c0-1.125,0-2.25-.113-3.487h2.025l.112,1.688h0a3.876,3.876,0,0,1,3.488-1.912,3.628,3.628,0,0,1,3.037,1.462A4.766,4.766,0,0,1,105.825,45.988Zm-2.363,0a4.042,4.042,0,0,0-.675-2.475,2.271,2.271,0,0,0-2.025-1.013,2.688,2.688,0,0,0-1.575.563,2.5,2.5,0,0,0-.9,1.462,1.979,1.979,0,0,0-.113.675V47a2.839,2.839,0,0,0,.675,1.912,2.238,2.238,0,0,0,1.8.788,2.271,2.271,0,0,0,2.025-1.013A4.064,4.064,0,0,0,103.463,45.988Z" transform="translate(6.437 2.712)"/>
    <path id="Path_109" data-name="Path 109" class="cls-2" d="M116.525,45.988a5.99,5.99,0,0,1-1.463,4.275,4.328,4.328,0,0,1-3.262,1.35,3.062,3.062,0,0,1-2.925-1.462h0v5.513h-2.362V44.413c0-1.125,0-2.25-.112-3.487h2.025l.112,1.688h0a3.876,3.876,0,0,1,3.488-1.912,3.628,3.628,0,0,1,3.037,1.462A4.767,4.767,0,0,1,116.525,45.988Zm-2.363,0a4.042,4.042,0,0,0-.675-2.475,2.271,2.271,0,0,0-2.025-1.013,2.688,2.688,0,0,0-1.575.563,2.5,2.5,0,0,0-.9,1.462,1.979,1.979,0,0,0-.113.675V47a2.839,2.839,0,0,0,.675,1.912,2.238,2.238,0,0,0,1.8.788,2.271,2.271,0,0,0,2.025-1.013A4.064,4.064,0,0,0,114.163,45.988Z" transform="translate(7.775 2.712)"/>
    <path id="Path_110" data-name="Path 110" class="cls-2" d="M128.387,47.675a4.154,4.154,0,0,1-1.237,3.037,5.356,5.356,0,0,1-3.937,1.238,6.955,6.955,0,0,1-3.713-.9l.563-1.912a6.873,6.873,0,0,0,3.375.9,3.34,3.34,0,0,0,2.025-.562,2.043,2.043,0,0,0,.675-1.575,2.139,2.139,0,0,0-.562-1.462,5.638,5.638,0,0,0-2.025-1.125c-2.588-.9-3.825-2.362-3.825-4.163a3.628,3.628,0,0,1,1.35-2.925,5.124,5.124,0,0,1,3.6-1.125,7.015,7.015,0,0,1,3.263.675l-.562,1.913a5.48,5.48,0,0,0-2.813-.675,3.218,3.218,0,0,0-1.912.563,1.863,1.863,0,0,0-.562,1.35,1.98,1.98,0,0,0,.675,1.463,8.729,8.729,0,0,0,2.137,1.125,7.589,7.589,0,0,1,2.813,1.8A4.528,4.528,0,0,1,128.387,47.675Z" transform="translate(9.412 2.262)"/>
    <path id="Path_111" data-name="Path 111" class="cls-2" d="M134.913,42.888h-2.588V47.95c0,1.238.45,1.913,1.35,1.913a2.5,2.5,0,0,0,1.012-.112l.113,1.8a4.122,4.122,0,0,1-1.8.225,2.646,2.646,0,0,1-2.138-.787,3.828,3.828,0,0,1-.787-2.812V42.888H128.5v-1.8h1.575V39.175l2.25-.675v2.587h2.588Z" transform="translate(10.537 2.437)"/>
    <path id="Path_112" data-name="Path 112" class="cls-2" d="M145.637,46a5.771,5.771,0,0,1-1.35,3.938,5.171,5.171,0,0,1-3.825,1.575,4.751,4.751,0,0,1-3.713-1.575,5.48,5.48,0,0,1-1.35-3.825,5.346,5.346,0,0,1,1.462-3.937,5,5,0,0,1,3.825-1.575,4.751,4.751,0,0,1,3.713,1.575A6,6,0,0,1,145.637,46Zm-2.475.112a4.278,4.278,0,0,0-.675-2.475,2.465,2.465,0,0,0-4.275,0,4.536,4.536,0,0,0-.675,2.475,4.278,4.278,0,0,0,.675,2.475,2.412,2.412,0,0,0,2.137,1.237,2.548,2.548,0,0,0,2.137-1.237A4.536,4.536,0,0,0,143.162,46.112Z" transform="translate(11.4 2.7)"/>
    <path id="Path_113" data-name="Path 113" class="cls-2" d="M151.838,42.863c-.225,0-.45-.113-.788-.113a2.4,2.4,0,0,0-1.913.9,3.885,3.885,0,0,0-.562,2.025v5.512h-2.362v-7.2a29.5,29.5,0,0,0-.113-3.263h2.025l.113,2.025h.113a4.451,4.451,0,0,1,1.125-1.687,3.348,3.348,0,0,1,1.688-.562h.563v2.363Z" transform="translate(12.737 2.687)"/>
    <path id="Path_114" data-name="Path 114" class="cls-2" d="M161.438,45.55a2.5,2.5,0,0,1-.112,1.013H154.35a2.906,2.906,0,0,0,1.012,2.362,3.623,3.623,0,0,0,2.25.788,7.387,7.387,0,0,0,2.813-.45l.337,1.575a8.387,8.387,0,0,1-3.488.675,4.922,4.922,0,0,1-3.825-1.462,5.293,5.293,0,0,1-1.35-3.825,6.328,6.328,0,0,1,1.238-3.937A4.494,4.494,0,0,1,157.05,40.6a3.744,3.744,0,0,1,3.375,1.688A4.723,4.723,0,0,1,161.438,45.55Zm-2.137-.562a3.3,3.3,0,0,0-.45-1.8,2.027,2.027,0,0,0-1.8-1.013,2.186,2.186,0,0,0-1.8.9,4.3,4.3,0,0,0-.675,1.8H159.3Z" transform="translate(13.487 2.7)"/>
    <path id="Path_115" data-name="Path 115" class="cls-2" d="M90.25,29.675A3.659,3.659,0,0,1,89.125,32.6a4.656,4.656,0,0,1-3.038.9,7.449,7.449,0,0,1-1.687-.113V26.413a10.938,10.938,0,0,1,2.025-.112,4.192,4.192,0,0,1,2.813.788A3.644,3.644,0,0,1,90.25,29.675Zm-1.237,0a2.35,2.35,0,0,0-2.588-2.588,2.193,2.193,0,0,0-.9.112v5.287h.788a2.75,2.75,0,0,0,2.025-.675A3.045,3.045,0,0,0,89.013,29.675Z" transform="translate(5.025 0.912)"/>
    <path id="Path_116" data-name="Path 116" class="cls-2" d="M95.763,30.6a2.646,2.646,0,0,1-.675,1.913,2.318,2.318,0,0,1-1.912.787,2.1,2.1,0,0,1-1.8-.787,3.047,3.047,0,0,1,0-3.825,2.317,2.317,0,0,1,1.912-.787,2.1,2.1,0,0,1,1.8.787A2.646,2.646,0,0,1,95.763,30.6Zm-1.125,0a2.268,2.268,0,0,0-.338-1.237.984.984,0,0,0-1.012-.562,1.181,1.181,0,0,0-1.013.563,2.438,2.438,0,0,0,0,2.475.984.984,0,0,0,1.013.562,1.081,1.081,0,0,0,1.012-.675A1.68,1.68,0,0,0,94.638,30.6Z" transform="translate(5.812 1.112)"/>
    <path id="Path_117" data-name="Path 117" class="cls-2" d="M103.738,28l-1.575,5.175H101.15l-.675-2.25a9.373,9.373,0,0,1-.45-1.687h0a9.371,9.371,0,0,1-.45,1.688l-.675,2.25H97.888L96.2,28h1.125l.563,2.475.337,1.688h0c.112-.45.225-1.013.45-1.688L99.35,28h.9l.675,2.363a9.374,9.374,0,0,1,.45,1.687h0l.337-1.687L102.388,28Z" transform="translate(6.5 1.125)"/>
    <path id="Path_118" data-name="Path 118" class="cls-2" d="M108.588,33.2h-1.125V30.275q0-1.35-1.012-1.35a1.021,1.021,0,0,0-.788.337,1.277,1.277,0,0,0-.337.9V33.2H104.2V28.025h1.012v.788h0a2.983,2.983,0,0,1,.563-.675,1.815,1.815,0,0,1,1.013-.337,1.692,1.692,0,0,1,1.237.45,1.936,1.936,0,0,1,.563,1.688Z" transform="translate(7.5 1.1)"/>
    <path id="Path_119" data-name="Path 119" class="cls-2" d="M111.025,33.437H109.9V25.9h1.125Z" transform="translate(8.212 0.862)"/>
    <path id="Path_120" data-name="Path 120" class="cls-2" d="M117.463,30.6a2.646,2.646,0,0,1-.675,1.913,2.318,2.318,0,0,1-1.912.787,2.1,2.1,0,0,1-1.8-.787,3.047,3.047,0,0,1,0-3.825,2.714,2.714,0,0,1,1.913-.787,2.1,2.1,0,0,1,1.8.787A2.646,2.646,0,0,1,117.463,30.6Zm-1.125,0A2.268,2.268,0,0,0,116,29.363a.984.984,0,0,0-1.012-.562,1.181,1.181,0,0,0-1.013.563,2.437,2.437,0,0,0,0,2.475.984.984,0,0,0,1.013.562A1.081,1.081,0,0,0,116,31.725,1.68,1.68,0,0,0,116.338,30.6Z" transform="translate(8.525 1.112)"/>
    <path id="Path_121" data-name="Path 121" class="cls-2" d="M122.263,33.188H121.25l-.112-.562h0a1.814,1.814,0,0,1-1.463.675,1.3,1.3,0,0,1-1.125-.45,2.022,2.022,0,0,1-.45-1.012,1.526,1.526,0,0,1,.787-1.463,4.2,4.2,0,0,1,2.25-.45v-.112a.9.9,0,0,0-1.013-1.013,2.672,2.672,0,0,0-1.35.337l-.225-.788a2.854,2.854,0,0,1,1.8-.45c1.35,0,2.025.675,2.025,2.137V31.95A5.521,5.521,0,0,0,122.263,33.188Zm-1.125-1.8V30.6c-1.238,0-1.913.338-1.913,1.013a.769.769,0,0,0,.788.787,1.6,1.6,0,0,0,.675-.225,1.123,1.123,0,0,0,.45-.562Z" transform="translate(9.237 1.112)"/>
    <path id="Path_122" data-name="Path 122" class="cls-2" d="M128.137,33.425h-1.012v-.787h0a1.66,1.66,0,0,1-1.688.9,2.043,2.043,0,0,1-1.575-.675,2.6,2.6,0,0,1-.562-1.912,3.141,3.141,0,0,1,.675-2.025,2.221,2.221,0,0,1,1.575-.675,1.671,1.671,0,0,1,1.462.675h0V26h1.125v7.425Zm-1.125-2.137V30.05a2.353,2.353,0,0,0-.45-.675.949.949,0,0,0-.787-.225,1.181,1.181,0,0,0-1.013.563,2.4,2.4,0,0,0-.337,1.35,2.021,2.021,0,0,0,.337,1.237,1.181,1.181,0,0,0,1.013.563,1.023,1.023,0,0,0,.9-.45A2.515,2.515,0,0,0,127.013,31.288Z" transform="translate(9.887 0.875)"/>
    <path id="Path_123" data-name="Path 123" class="cls-2" d="M136.863,30.6a2.646,2.646,0,0,1-.675,1.913,2.318,2.318,0,0,1-1.912.787,2.1,2.1,0,0,1-1.8-.787,3.047,3.047,0,0,1,0-3.825,2.317,2.317,0,0,1,1.912-.787,2.1,2.1,0,0,1,1.8.787A2.646,2.646,0,0,1,136.863,30.6Zm-1.237,0a2.268,2.268,0,0,0-.337-1.237.984.984,0,0,0-1.012-.562,1.182,1.182,0,0,0-1.013.563,2.438,2.438,0,0,0,0,2.475.984.984,0,0,0,1.013.562,1.081,1.081,0,0,0,1.012-.675A1.68,1.68,0,0,0,135.625,30.6Z" transform="translate(10.95 1.112)"/>
    <path id="Path_124" data-name="Path 124" class="cls-2" d="M142.288,33.2h-1.125V30.275q0-1.35-1.013-1.35a1.021,1.021,0,0,0-.787.337,1.277,1.277,0,0,0-.338.9V33.2H137.9V28.025h1.012v.788h0a2.983,2.983,0,0,1,.563-.675,1.815,1.815,0,0,1,1.012-.337,1.692,1.692,0,0,1,1.238.45,1.936,1.936,0,0,1,.563,1.688Z" transform="translate(11.712 1.1)"/>
    <path id="Path_125" data-name="Path 125" class="cls-2" d="M148.938,29.038H147.7v2.475c0,.675.225.9.675.9h.563v.9a2.193,2.193,0,0,1-.9.112,1.1,1.1,0,0,1-1.013-.45,2.163,2.163,0,0,1-.337-1.35V29.037H145.9v-.9h.788v-.9l1.125-.337v1.237h1.238v.9Z" transform="translate(12.712 0.987)"/>
    <path id="Path_126" data-name="Path 126" class="cls-2" d="M154.488,33.437h-1.125V30.513q0-1.35-1.012-1.35a1.083,1.083,0,0,0-1.125.788v3.487H150.1V25.9h1.125v3.15h0a1.8,1.8,0,0,1,1.575-.9,1.3,1.3,0,0,1,1.125.45,2.532,2.532,0,0,1,.563,1.687Z" transform="translate(13.237 0.862)"/>
    <path id="Path_127" data-name="Path 127" class="cls-2" d="M160,30.363v.563h-3.375a1.5,1.5,0,0,0,.45,1.125,1.9,1.9,0,0,0,1.125.338,4.2,4.2,0,0,0,1.35-.225l.225.788a3.757,3.757,0,0,1-1.687.337,2.71,2.71,0,0,1-1.913-4.5,2.1,2.1,0,0,1,1.8-.788,1.776,1.776,0,0,1,1.688.788A2.979,2.979,0,0,1,160,30.363Zm-1.013-.338a2.12,2.12,0,0,0-.225-.9.913.913,0,0,0-.9-.45,1.023,1.023,0,0,0-.9.45,1.277,1.277,0,0,0-.338.9Z" transform="translate(13.913 1.125)"/>
  </g>
</svg>
