<svg xmlns="http://www.w3.org/2000/svg" viewBox="0 0 173.33 173.33"><defs><style>.cls-1{fill:#a2654d;}.cls-2{fill:#fff;}</style></defs><title>mood-icon</title><g id="Layer_2" data-name="Layer 2"><g id="Layer_1-2" data-name="Layer 1"><path class="cls-1" d="M149,173.33H24.31A24.3,24.3,0,0,1,0,149V24.31A24.3,24.3,0,0,1,24.31,0H149a24.3,24.3,0,0,1,24.31,24.31V149A24.3,24.3,0,0,1,149,173.33"/><path class="cls-2" d="M84.22,95.86l-9-33.26h0l0-.05c-7.2-19.62-24.93-16.49-24.93-16.49,10.27,0,16.1,29.84,16.1,29.84a.11.11,0,0,0,0,.12l9,33.22v0c7.2,19.61,24.92,16.48,24.92,16.48-10.27,0-16.1-29.83-16.1-29.83"/><path class="cls-2" d="M126.76,96l.08-.13v0l-9-33.26h0l0-.05C110.71,42.92,93,46.05,93,46.05c10.27,0,16.1,29.84,16.1,29.84a.17.17,0,0,0,0,.12L118,109.09l-.07.11c7.19,19.62,24.93,16.49,24.93,16.49-9.84,0-15.61-27.38-16.07-29.68"/><path class="cls-2" d="M42.31,109.61a8,8,0,1,0,8,8,8,8,0,0,0-8-8"/></g></g></svg>