<svg xmlns="http://www.w3.org/2000/svg" xmlns:xlink="http://www.w3.org/1999/xlink" viewBox="0 0 144 45">
  <defs>
    <style>
      .cls-1 {
        fill: #333333;
      }

      .cls-2, .cls-3, .cls-4, .cls-5, .cls-6 {
        fill-rule: evenodd;
      }

      .cls-2 {
        fill: url(#linear-gradient);
      }

      .cls-3 {
        fill: url(#linear-gradient-2);
      }

      .cls-4 {
        fill: url(#linear-gradient-3);
      }

      .cls-5 {
        fill: url(#linear-gradient-4);
      }

      .cls-6, .cls-7 {
        fill: #ffffff;
      }
    </style>
    <linearGradient id="linear-gradient" x1="0.295" y1="-0.061" x2="0.551" y2="0.922" gradientUnits="objectBoundingBox">
      <stop offset="0" stop-color="#006884"/>
      <stop offset="1" stop-color="#8ad1d0"/>
    </linearGradient>
    <linearGradient id="linear-gradient-2" x1="-0.075" y1="0.158" x2="0.915" y2="0.863" gradientUnits="objectBoundingBox">
      <stop offset="0" stop-color="#24bbb6"/>
      <stop offset="1" stop-color="#dbe692"/>
    </linearGradient>
    <linearGradient id="linear-gradient-3" x1="0.499" y1="1.058" x2="0.499" y2="-0.031" gradientUnits="objectBoundingBox">
      <stop offset="0" stop-color="#fcc072"/>
      <stop offset="1" stop-color="#f58a5b"/>
    </linearGradient>
    <linearGradient id="linear-gradient-4" x1="0.112" y1="1.178" x2="0.904" y2="0.121" gradientUnits="objectBoundingBox">
      <stop offset="0" stop-color="#712b8f"/>
      <stop offset="1" stop-color="#ea1d27"/>
    </linearGradient>
  </defs>
  <g id="google-play-badge" transform="translate(-185.5 -18.5)">
    <path id="Path_128" data-name="Path 128" class="cls-1" d="M325,63.5H190a4.513,4.513,0,0,1-4.5-4.5V23a4.513,4.513,0,0,1,4.5-4.5H325a4.513,4.513,0,0,1,4.5,4.5V59A4.513,4.513,0,0,1,325,63.5Z"/>
    <path id="Path_129" data-name="Path 129" class="cls-2" d="M195.3,39.55V27.738a1.232,1.232,0,0,1,1.125-1.238,1.68,1.68,0,0,1,1.125.337l21.712,11.925a.937.937,0,0,1,0,1.8L197.55,52.487a2.21,2.21,0,0,1-1.125.337,1.232,1.232,0,0,1-1.125-1.237Z" transform="translate(1.225 1)"/>
    <path id="Path_130" data-name="Path 130" class="cls-3" d="M209.263,39.663,196.1,26.5h.225a1.68,1.68,0,0,1,1.125.337l15.975,8.775Z" transform="translate(1.325 1)"/>
    <path id="Path_131" data-name="Path 131" class="cls-4" d="M211.85,42.613l-4.05-4.05,4.163-4.163,5.737,3.15a.937.937,0,0,1,0,1.8Z" transform="translate(2.787 1.988)"/>
    <path id="Path_132" data-name="Path 132" class="cls-5" d="M196.2,51.15h0L209.25,38.1l4.05,4.05-15.863,8.662a1.81,1.81,0,0,1-1.238.338Z" transform="translate(1.337 2.45)"/>
    <path id="Path_133" data-name="Path 133" class="cls-6" d="M260.678,54.388a5.388,5.388,0,0,1-1.238-1.687l1.8-.787a10.364,10.364,0,0,0,.563.9,2.778,2.778,0,0,0,1.8.9,2.576,2.576,0,0,0,1.913-.9,3.486,3.486,0,0,0,.563-1.913v-.675c-1.35,1.688-4.163,1.462-5.737-.338a4.984,4.984,0,0,1,0-6.638c1.688-1.687,4.163-1.913,5.625-.337h0v-.788h1.913v8.438a4.874,4.874,0,0,1-1.8,4.163,4.152,4.152,0,0,1-2.587.787,5.162,5.162,0,0,1-2.813-1.125Zm47.137.45h0l1.913-4.5-3.375-7.763h1.913l2.363,5.513,2.363-5.513H314.9l-5.175,12.262h-1.913ZM298.7,50.563h0a2.97,2.97,0,0,1-.788-2.138,2.555,2.555,0,0,1,.675-1.8,4.339,4.339,0,0,1,3.15-1.125,3.852,3.852,0,0,1,2.025.45,1.911,1.911,0,0,0-2.025-1.912,2.079,2.079,0,0,0-1.913,1.237l-1.687-.675a3.573,3.573,0,0,1,3.488-2.25,3.816,3.816,0,0,1,2.925,1.125,4.149,4.149,0,0,1,.9,2.925v4.725h-1.913v-.788a3.5,3.5,0,0,1-1.012.788,3.593,3.593,0,0,1-1.575.337,4.344,4.344,0,0,1-2.25-.9Zm-59.962-4.05h0a4.671,4.671,0,0,1,4.725-4.725,4.745,4.745,0,0,1,4.725,4.725,4.725,4.725,0,1,1-9.45,0Zm10.125,0h0a4.671,4.671,0,0,1,4.725-4.725,4.745,4.745,0,0,1,4.725,4.725,4.671,4.671,0,0,1-4.725,4.725,4.745,4.745,0,0,1-4.725-4.725Zm-22.838,2.475h0a7.4,7.4,0,0,1,.113-10.35,7.142,7.142,0,0,1,5.175-2.138,6.98,6.98,0,0,1,4.95,2.025l-1.35,1.463a5.026,5.026,0,0,0-7.2.112,5.435,5.435,0,0,0,0,7.538,5.1,5.1,0,0,0,7.425.112,4.048,4.048,0,0,0,1.013-2.475h-4.725V43.25h6.638a6.919,6.919,0,0,1,.112,1.575,6.48,6.48,0,0,1-1.8,4.5,6.9,6.9,0,0,1-4.838,1.913,8.354,8.354,0,0,1-5.512-2.25Zm47.587.787h0a5.132,5.132,0,0,1,0-6.75,4.092,4.092,0,0,1,6.075,0,6.668,6.668,0,0,1,1.238,2.138l-6.187,2.587a2.4,2.4,0,0,0,2.25,1.462,2.548,2.548,0,0,0,2.362-1.35l1.688,1.125h0a2.983,2.983,0,0,0-.562.675,4.927,4.927,0,0,1-6.862.112Zm11.7,1.35h0V38.638h4.05a4.04,4.04,0,0,1,4.275,3.713,3.77,3.77,0,0,1-3.825,3.712h-2.475v4.95h-2.025Zm9.45,0h0V38.638h1.913V51.125ZM269.341,50.9h0V36.95h2.025V50.9h-2.025Zm34.313-3.487h0a3.067,3.067,0,0,0-1.8-.45c-1.35,0-2.137.675-2.137,1.463a1.415,1.415,0,0,0,1.575,1.237,2.351,2.351,0,0,0,2.363-2.25Zm-57.6-.9h0a2.6,2.6,0,1,0-2.588,2.813,2.737,2.737,0,0,0,2.588-2.812Zm10.125,0h0a2.6,2.6,0,1,0-2.588,2.813,2.661,2.661,0,0,0,2.588-2.812Zm10.012.787h0a.413.413,0,0,1,.113-.338h0V45.95c0-.112-.113-.337-.113-.45a2.61,2.61,0,0,0-2.363-1.913,2.732,2.732,0,0,0-2.475,2.813,2.672,2.672,0,0,0,2.587,2.813c.9.113,1.8-.675,2.25-1.912Zm8.212-1.012h0l4.163-1.8a1.877,1.877,0,0,0-1.687-1.013,2.727,2.727,0,0,0-2.475,2.813Zm17.213-3.825h0a1.958,1.958,0,0,0-2.138-1.912h-2.25v3.938h2.363A2.017,2.017,0,0,0,291.616,42.462Z" transform="translate(4.809 2.25)"/>
    <path id="Path_134" data-name="Path 134" class="cls-6" d="M299.813,50.812H299.7V50.7h0v.112h.112Z" transform="translate(14.275 4.025)"/>
    <path id="Path_135" data-name="Path 135" class="cls-6" d="M299.8,50.812Zm0-.112Z" transform="translate(14.287 4.025)"/>
    <path id="Path_136" data-name="Path 136" class="cls-6" d="M299.8,50.812h0V50.7h0v.112Z" transform="translate(14.287 4.025)"/>
    <path id="Path_137" data-name="Path 137" class="cls-6" d="M299.8,50.812Zm0-.112Z" transform="translate(14.287 4.025)"/>
    <path id="Path_138" data-name="Path 138" class="cls-6" d="M299.8,50.7h0v.112h0V50.7Z" transform="translate(14.287 4.025)"/>
    <path id="Path_139" data-name="Path 139" class="cls-6" d="M299.8,50.812h0V50.7h0v.112Z" transform="translate(14.287 4.025)"/>
    <path id="Path_140" data-name="Path 140" class="cls-6" d="M299.8,50.809Zm0,0Z" transform="translate(14.287 4.028)"/>
    <path id="Path_141" data-name="Path 141" class="cls-6" d="M299.9,50.812Zm0-.112Zm0,.112Z" transform="translate(14.3 4.025)"/>
    <path id="Path_142" data-name="Path 142" class="cls-6" d="M299.9,50.7h0v.112h0Z" transform="translate(14.3 4.025)"/>
    <path id="Path_143" data-name="Path 143" class="cls-6" d="M299.9,50.812h0V50.7h0v.112Z" transform="translate(14.3 4.025)"/>
    <path id="Path_144" data-name="Path 144" class="cls-6" d="M299.9,50.812Zm0-.112Z" transform="translate(14.3 4.025)"/>
    <path id="Path_145" data-name="Path 145" class="cls-6" d="M299.9,50.809Z" transform="translate(14.3 4.028)"/>
    <path id="Path_146" data-name="Path 146" class="cls-6" d="M300.009,50.812Zm0-.112h0c0,.112-.113.112,0,0Z" transform="translate(14.303 4.025)"/>
    <path id="Path_147" data-name="Path 147" class="cls-6" d="M300,50.812V50.7h0v.112h0V50.7h0v.112h0V50.7h0Z" transform="translate(14.313 4.025)"/>
    <path id="Path_148" data-name="Path 148" class="cls-6" d="M300,50.812Zm0-.112Z" transform="translate(14.313 4.025)"/>
    <path id="Path_149" data-name="Path 149" class="cls-6" d="M300,50.809Z" transform="translate(14.313 4.028)"/>
    <path id="Path_150" data-name="Path 150" class="cls-6" d="M300.113,50.7h0v.112h0V50.7Z" transform="translate(14.313 4.025)"/>
    <path id="Path_151" data-name="Path 151" class="cls-6" d="M300.1,50.812h0V50.7h0v.112Z" transform="translate(14.325 4.025)"/>
    <path id="Path_152" data-name="Path 152" class="cls-6" d="M300.1,50.812Zm0-.112Z" transform="translate(14.325 4.025)"/>
    <path id="Path_153" data-name="Path 153" class="cls-7" d="M224.4,28.962a3.13,3.13,0,0,1,3.262-3.262,2.991,2.991,0,0,1,2.587,1.35l-.9.563a2.032,2.032,0,0,0-1.687-.788,2.1,2.1,0,0,0-2.137,2.25,2.1,2.1,0,0,0,2.137,2.25,2.218,2.218,0,0,0,1.462-.562V29.75h-1.8V28.738h3.038V31.1a3.293,3.293,0,0,1-2.588,1.125A3.223,3.223,0,0,1,224.4,28.962Z" transform="translate(4.862 0.9)"/>
    <path id="Path_154" data-name="Path 154" class="cls-7" d="M230.9,32.1V25.8h4.275v1.012h-3.263v1.575h3.15V29.4h-3.15v1.8h3.263v1.012L230.9,32.1Z" transform="translate(5.675 0.912)"/>
    <path id="Path_155" data-name="Path 155" class="cls-7" d="M237.712,32.1V26.813H235.8V25.8h4.95v1.012h-1.913V32.1Z" transform="translate(6.288 0.913)"/>
    <path id="Path_156" data-name="Path 156" class="cls-7" d="M243.6,32.1V25.8h1.125v6.3Z" transform="translate(7.262 0.912)"/>
    <path id="Path_157" data-name="Path 157" class="cls-7" d="M247.512,32.1V26.813H245.6V25.8h4.95v1.012h-1.913V32.1Z" transform="translate(7.512 0.913)"/>
    <path id="Path_158" data-name="Path 158" class="cls-7" d="M253.2,28.962a3.262,3.262,0,1,1,3.263,3.262A3.2,3.2,0,0,1,253.2,28.962Zm5.287,0a2.04,2.04,0,0,0-2.137-2.25,2.163,2.163,0,0,0-2.137,2.25,2.04,2.04,0,0,0,2.137,2.25A2.1,2.1,0,0,0,258.487,28.962Z" transform="translate(8.462 0.9)"/>
    <path id="Path_159" data-name="Path 159" class="cls-7" d="M264.487,32.1l-3.262-4.5v4.5H260.1V25.8h1.125l3.262,4.387V25.8h1.125v6.3Z" transform="translate(9.325 0.912)"/>
  </g>
</svg>
